<svg width="34" height="30" viewBox="0 0 34 30" fill="none" xmlns="http://www.w3.org/2000/svg">
<g clip-path="url(#clip0_3_14)">
<path d="M4.48749 1.99435H7.55884V2.0034e-06H4.48749C3.63966 -0.0008 2.80905 0.239207 2.09232 0.692089L3.15797 2.37796C3.55585 2.12673 4.01692 1.99369 4.48749 1.99435ZM1.99436 4.48748C1.99436 4.12305 2.07092 3.77244 2.22184 3.44518L0.41062 2.61026C0.138693 3.19864 -0.00144177 3.83931 1.11838e-05 4.48748V8.01757H1.99436V4.48748ZM1.11838e-05 10.0319H1.99436V15.0578H1.11838e-05V10.0319ZM26.8567 2.44135C27.4458 2.06791 28.044 1.7088 28.6505 1.36435C28.3111 1.01443 27.9173 0.721734 27.4843 0.497611C26.8484 0.17084 26.1438 0.000262136 25.4288 2.0034e-06H23.6638V1.99435H25.4288C25.9513 1.99435 26.4446 2.15231 26.8567 2.44135ZM1.11838e-05 17.0722H1.99436V22.1082H1.11838e-05V17.0722ZM9.57327 2.0034e-06H14.5992V1.99448H9.57327V2.0034e-06ZM16.6135 2.0034e-06H21.6494V1.99448H16.6135V2.0034e-06ZM18.8373 27.9218H23.8632V29.9163H18.8373V27.9218ZM27.9219 11.3283H29.9164V16.3642H27.9219V11.3283ZM27.9219 18.3785H29.9164V23.4044H27.9219V18.3785ZM1.99436 25.4288V24.1225H1.11838e-05V25.4288C0.000304714 26.2313 0.215608 27.0191 0.623528 27.7102C1.03145 28.4013 1.61709 28.9706 2.31953 29.3587L3.2841 27.6129C2.89359 27.3973 2.568 27.081 2.34118 26.6969C2.11436 26.3127 1.9946 25.8749 1.99436 25.4288ZM27.9219 7.99135V9.31396H29.9163V6.35192C29.2607 6.84 28.5952 7.38705 27.9219 7.99135ZM27.9219 25.4288C27.9219 26.679 26.9889 27.7419 25.7516 27.9013L26.0062 29.8793C27.0816 29.7401 28.0701 29.2159 28.7885 28.4037C29.5156 27.5833 29.9168 26.525 29.9163 25.4288V25.4189H27.9219V25.4288ZM4.73675 27.9218H9.77271V29.9163H4.73675V27.9218ZM11.787 27.9218H16.823V29.9163H11.787V27.9218Z" fill="#383838"/>
<path d="M4.56714 15.8789L13.9219 25.2337C13.9219 25.2337 23.2767 7.2364 33.3913 3.20009L33.0114 0.350876C27.5031 2.53527 19.1454 8.28118 12.9722 17.066L6.46666 13.2197L4.56714 15.8789Z" fill="#FF643C"/>
</g>
<defs>
<clipPath id="clip0_3_14">
<rect width="33.3913" height="30" fill="white"/>
</clipPath>
</defs>
</svg>
